<svg width="72" height="72" viewBox="0 0 72 72" fill="none" xmlns="http://www.w3.org/2000/svg">
<path d="M32.8804 6.17975L16.3804 12.3598C13.2304 13.5598 10.6504 17.2798 10.6504 20.6698V44.9697C10.6504 47.3997 12.2404 50.6098 14.1904 52.0498L30.6904 64.3797C33.6004 66.5697 38.3704 66.5697 41.2804 64.3797L57.7804 52.0498C59.7304 50.5798 61.3204 47.3997 61.3204 44.9697V20.6698C61.3204 17.3098 58.7404 13.5598 55.5904 12.3898L39.0904 6.20975C37.4104 5.54975 34.5904 5.54975 32.8804 6.17975Z" fill="white"/>
<path d="M31.9807 42.6904C31.4107 42.6904 30.8407 42.4804 30.3907 42.0304L25.5607 37.2004C24.6907 36.3304 24.6907 34.8904 25.5607 34.0204C26.4307 33.1504 27.8707 33.1504 28.7407 34.0204L31.9807 37.2604L43.2907 25.9504C44.1607 25.0804 45.6007 25.0804 46.4707 25.9504C47.3407 26.8204 47.3407 28.2604 46.4707 29.1304L33.5707 42.0304C33.1207 42.4804 32.5507 42.6904 31.9807 42.6904Z" fill="#292D32"/>
</svg>
